# xmcd
#
# Track frame offsets:
# 150
# 16161
# 35470
# 40717
# 60726
# 90455
# 106308
# 115394
# 143909
# 159467
# 181831
# 196229
# 223065
#
# Disc length: 3300 seconds
#
#
# Revision: 0
# Processed by: cddbd v1.5.2PL0 Copyright (c) Steve Scherf et al.
# Submitted via: FreeRIP 2.951 
#
DISCID=a90ce20d
DTITLE=Dan Greenaway - The Voice Within
DYEAR=1900
DGENRE=Alt. Rock
TTITLE0=Smile
TTITLE1=I Wish That I Could Tell You
TTITLE2=TC's Blues
TTITLE3=We Get Thru
TTITLE4=Don't
TTITLE5=AJH
TTITLE6=The Voice Within
TTITLE7=Live For the Sun
TTITLE8=So Close
TTITLE9=Rachel
TTITLE10=Start
TTITLE11=Stronger
TTITLE12=Charles
EXTD=
EXTT0=
EXTT1=
EXTT2=
EXTT3=
EXTT4=
EXTT5=
EXTT6=
EXTT7=
EXTT8=
EXTT9=
EXTT10=
EXTT11=
EXTT12=
PLAYORDER=
